<svg width="163" height="48" viewBox="0 0 163 48" fill="none" xmlns="http://www.w3.org/2000/svg">
<path fill-rule="evenodd" clip-rule="evenodd" d="M77.4617 19.3296C79.5131 19.9887 80.4194 24.1394 77.5886 27.8551C77.1065 28.4875 71.7453 34.9907 71.374 34.5103C69.2803 31.8032 64.0105 28.0159 64.6767 23.0671C64.9871 20.7588 68.0207 18.1396 70.7296 22.7699C71.1152 23.4297 71.4791 24.1051 71.8405 24.7817C72.4532 23.4409 73.4515 21.2037 74.5152 20.3171C75.2554 19.7015 76.4664 19.0087 77.4623 19.3296H77.4617Z" fill="#FF6231"/>
<path d="M122.56 13.4085C123.308 13.4085 123.776 13.502 124.056 13.9705C124.337 14.5325 124.618 15.1879 124.618 16.2184C124.618 17.9043 123.87 19.8718 122.56 21.2761C121.719 22.3066 120.409 23.3371 118.165 23.7122C118.258 21.0892 118.819 18.3735 119.754 16.3125C120.596 14.5325 121.718 13.4085 122.56 13.4085H122.56ZM104.325 32.6097C103.577 34.2021 102.361 36.169 100.49 36.169C99.8353 36.169 99.2743 35.4202 99.2743 34.4831C99.2743 31.6733 103.015 29.9873 105.259 29.3313C104.978 30.5493 104.698 31.6733 104.324 32.6097H104.325ZM105.914 25.304C102.641 25.9595 98.3394 28.0204 96.6562 31.0172C98.0588 19.0276 100.116 15.0004 101.333 13.783C101.894 13.1276 102.267 13.1276 102.267 13.1276C104.325 13.1276 106.008 17.8109 106.008 23.3371C106.008 23.9926 105.914 24.7421 105.914 25.304ZM114.519 24.4623C112.785 24.4742 111.132 24.567 109.561 24.7421C109.655 24.2735 109.655 23.8985 109.655 23.3371C109.655 18.8414 108.252 9.47411 102.267 9.47411C96.7501 9.47411 94.6925 19.8712 93.9448 24.2735C93.571 23.6181 93.1032 23.2431 92.3555 23.2431C91.4206 23.2431 90.5784 24.0866 90.5784 25.1171C90.5784 32.1536 91.0748 39.0038 91.4573 46.0004C91.5133 47.0291 92.2989 47.9673 93.3278 47.9673C94.3566 47.9673 95.1098 47.0272 95.1982 46.0004C96.0031 36.6382 95.5042 43.5133 96.0031 36.6382C96.7514 38.5116 98.4345 39.8231 100.492 39.8231C106.009 39.8231 108.534 33.0794 109.188 28.4896C110.853 28.2117 112.609 27.9338 114.819 27.9282C115.105 29.5973 115.636 31.3642 116.576 32.986C118.166 35.7958 120.878 37.3883 124.057 37.3883C128.44 37.3883 131.303 33.738 132.931 30.7412C133.549 32.1841 134.26 33.3318 135.093 34.2034C136.308 35.6083 137.804 36.1703 139.394 36.1703C141.171 36.1703 143.696 35.3273 145.94 31.2066C146.126 30.8633 146.287 30.5225 146.428 30.1911C146.701 30.9225 146.875 31.5642 146.875 32.0496C146.875 32.8919 146.594 33.7355 146.408 34.4844L144.164 36.2644C142.48 37.6693 141.171 38.8867 141.639 40.4791C141.731 41.0411 142.386 41.9775 144.164 41.9775C145.659 41.9775 147.343 40.7601 148.652 38.5122L149.587 36.8263L151.831 35.047C154.636 32.986 158.284 30.5512 161.837 27.7407C162.585 27.1787 162.679 25.9613 162.024 25.2118C161.463 24.3689 160.34 24.2754 159.499 24.8374C156.319 27.3669 153.233 29.7082 150.521 31.5817C150.427 29.8023 149.399 27.9289 148.464 25.5869C147.341 23.1521 146.126 20.3416 146.126 18.2812C146.126 17.5317 146.499 16.4078 147.154 15.8452C147.341 15.5642 147.435 15.4708 147.622 15.4708C147.716 15.5642 147.809 16.2196 147.809 16.3137C147.809 17.4377 148.651 18.2806 149.679 18.2806C152.858 18.2806 151.736 11.8173 147.715 11.8173C146.499 11.8173 145.377 12.2852 144.442 13.3157C143.227 14.5331 142.479 16.4072 142.479 18.28C142.479 20.526 143.315 23.0113 144.272 25.3059C144.188 25.448 144.119 25.6043 144.068 25.7738C143.601 28.0217 141.636 32.5175 139.392 32.5175C139.018 32.5175 138.363 32.5175 137.803 31.768C136.4 30.4565 134.53 26.5227 133.502 15.1885H139.58C140.608 15.1885 141.45 14.3456 141.45 13.4092C141.45 12.3787 140.608 11.5357 139.58 11.5357H133.314C133.314 9.04858 133.258 2.06816 133.258 1.97471C133.258 1.03829 132.51 0.0968977 131.574 0.00780454C130.546 -0.0906341 129.611 0.757309 129.611 1.69372C129.611 1.88063 129.633 9.02117 129.761 11.5357H126.719C125.692 10.3987 124.207 9.75572 122.561 9.75572C120.129 9.75572 117.978 11.5357 116.482 14.8141C115.267 17.4364 114.519 20.9023 114.519 24.2735L114.519 24.4629L114.519 24.4623ZM128.205 15.1873H129.854C130.135 17.9037 130.321 20.2457 130.696 22.4001C130.912 23.6219 131.141 24.7564 131.387 25.8068C130.966 26.8373 128.321 33.7336 124.056 33.7336C120.222 33.7336 118.913 30.1742 118.446 27.3644C121.064 26.9899 123.495 25.6785 125.365 23.7109C127.143 21.65 128.264 18.7467 128.264 16.2172C128.264 15.8689 128.244 15.5237 128.205 15.1867V15.1873Z" fill="#FF6231"/>
<path d="M12.1456 11.5934C14.6311 11.5934 16.7889 12.0083 18.6195 12.8382C20.4501 13.668 21.8603 14.8456 22.8486 16.372C23.8377 17.8978 24.3322 19.7046 24.3322 21.7923C24.3322 23.8533 23.8377 25.6539 22.8486 27.1928C21.8603 28.7323 20.4501 29.9098 18.6195 30.726C16.7889 31.5427 14.6311 31.9502 12.1456 31.9502H6.49326V38.2129C6.49326 39.0316 5.82646 39.6994 5.00912 39.6994H1.48414C0.666805 39.6994 0 39.0316 0 38.2129V13.0799C0 12.2612 0.666805 11.5934 1.48414 11.5934H12.1462H12.1456ZM11.7848 26.6507C13.7354 26.6507 15.2189 26.2289 16.2347 25.386C17.2505 24.543 17.758 23.3449 17.758 21.7923C17.758 20.213 17.2505 19.0018 16.2347 18.1582C15.2189 17.3153 13.7361 16.8935 11.7848 16.8935H6.49326V26.6507H11.7848Z" fill="white"/>
<path d="M46.3788 39.059L41.4094 31.8698H41.0891H35.4368V38.2129C35.4368 39.0316 34.77 39.6994 33.952 39.6994H30.4271C29.6091 39.6994 28.9423 39.0316 28.9423 38.2129V13.0799C28.9423 12.2612 29.6091 11.5934 30.4271 11.5934H41.0891C43.5747 11.5934 45.7325 12.0083 47.5631 12.8382C49.3937 13.668 50.8038 14.8456 51.7922 16.372C52.7812 17.8978 53.2757 19.7046 53.2757 21.7923C53.2757 23.8807 52.7744 25.6807 51.7723 27.1928C50.7702 28.7055 49.347 29.8631 47.5034 30.6661L52.1685 37.3631C52.4932 37.8291 52.5299 38.3979 52.2674 38.9013C52.0049 39.4054 51.5185 39.7007 50.9512 39.7007H47.5998C47.0972 39.7007 46.6655 39.4739 46.3794 39.0602L46.3788 39.059ZM46.701 21.7911C46.701 20.2117 46.1934 19.0005 45.1776 18.157C44.1619 17.314 42.679 16.8922 40.7277 16.8922H35.4362V26.6893H40.7277C42.6784 26.6893 44.1619 26.2613 45.1776 25.4047C46.1934 24.548 46.701 23.3437 46.701 21.7911Z" fill="white"/>
<path d="M71.9965 40.1814C71.2706 40.1814 70.5627 40.1422 69.8723 40.0643L66.2615 46.3288C65.3421 47.9232 63.2876 48.4746 61.6952 47.5543H61.6946C60.1029 46.6335 59.5518 44.5756 60.4711 42.9807L63.407 37.8868C61.406 36.6706 59.8124 35.0732 58.6268 33.0938C57.3038 30.8858 56.6426 28.4024 56.6426 25.6455C56.6426 22.8886 57.3038 20.4052 58.6268 18.1972C59.9499 15.9892 61.7805 14.2559 64.1186 12.9974C66.4568 11.7395 69.083 11.1103 71.9959 11.1103C74.9088 11.1103 77.5281 11.7395 79.8532 12.9974C82.1783 14.2553 84.0089 15.9886 85.345 18.1972C86.6811 20.4059 87.3492 22.8886 87.3492 25.6455C87.3492 28.4024 86.6811 30.8852 85.345 33.0938C84.0089 35.3025 82.1783 37.0357 79.8532 38.2936C77.5281 39.5515 74.9094 40.1808 71.9959 40.1808L71.9965 40.1814ZM71.9965 36.0676C73.9161 36.0676 75.6509 35.6258 77.1991 34.7418C78.7473 33.8577 79.9627 32.6247 80.8454 31.0428C81.7274 29.461 82.169 27.6616 82.169 25.6462C82.169 23.63 81.7274 21.8307 80.8454 20.2488C79.9627 18.667 78.7473 17.4346 77.1991 16.5499C75.6509 15.6658 73.9167 15.2241 71.9965 15.2241C70.077 15.2241 68.3428 15.6658 66.7946 16.5499C65.2463 17.434 64.0309 18.667 63.1483 20.2488C62.2656 21.8307 61.8246 23.63 61.8246 25.6462C61.8246 27.6623 62.2656 29.461 63.1483 31.0428C64.0309 32.6247 65.2463 33.8577 66.7946 34.7418C68.3428 35.6258 70.077 36.0676 71.9965 36.0676Z" fill="white"/>
</svg>
